#Comment line ignore any data following # character 
#Hierarchical Translation and Rotation (.htr) file 
[Header]	
#Header keywords are followed by a single value 
FileType HTR		#Single word string
DataType HTRS		#Translation followed by rotation and scale data
FileVersion 1		#integer
NumSegments 64		#integer
NumFrames 3		#integer
DataFrameRate 30		#integer, data frame rate in this file
EulerRotationOrder ZYX
CalibrationUnits mm
RotationUnits Degrees
GlobalAxisofGravity Y
BoneLengthAxis Y
ScaleFactor 1.00
[SegmentNames&Hierarchy]
#CHILD	PARENT
Pinger_Root GLOBAL
Pelvis Pinger_Root
L_Hip Pelvis
R_Hip Pelvis
Rear_Leg01 Pelvis
Spine1 Pelvis
L_Leg01 L_Hip
L_Leg02 L_Leg01
L_Leg03 L_Leg02
L_Foot L_Leg03
L_Toe1_01 L_Foot
L_Toe2_01 L_Foot
L_Toe3_01 L_Foot
planeAlignerLeft L_Foot
L_Toe1_02 L_Toe1_01
L_Toe1_03 L_Toe1_02
L_Toe2_02 L_Toe2_01
L_Toe2_03 L_Toe2_02
L_Toe3_02 L_Toe3_01
L_Toe3_03 L_Toe3_02
planeLockWeightLeft planeAlignerLeft
R_Leg01 R_Hip
R_Leg02 R_Leg01
R_Leg03 R_Leg02
R_Foot R_Leg03
planeAlignerRight R_Foot
R_Toe1_01 R_Foot
R_Toe2_01 R_Foot
R_Toe3_01 R_Foot
planeLockWeightRight planeAlignerRight
R_Toe1_02 R_Toe1_01
R_Toe1_03 R_Toe1_02
R_Toe2_02 R_Toe2_01
R_Toe2_03 R_Toe2_02
R_Toe3_02 R_Toe3_01
R_Toe3_03 R_Toe3_02
Rear_Leg02 Rear_Leg01
Rear_Leg03 Rear_Leg02
Rear_Leg04 Rear_Leg03
Rear_Foot Rear_Leg04
planeAlignerCenter Rear_Foot
Rear_Toe1_01 Rear_Foot
Rear_Toe2_01 Rear_Foot
Rear_Toe3_01 Rear_Foot
planeLockWeightCenter planeAlignerCenter
Rear_Toe1_02 Rear_Toe1_01
Rear_Toe1_03 Rear_Toe1_02
Rear_Toe2_02 Rear_Toe2_01
Rear_Toe2_03 Rear_Toe2_02
Rear_Toe3_02 Rear_Toe3_01
Rear_Toe3_03 Rear_Toe3_02
Back_Bone Spine1
Head Spine1
Motor_Bone Back_Bone
Ping_Mechanism Back_Bone
BN_LookIK Head
bottomMouth Head
L_Mouth01 Head
L_mouthFront Head
mouthGun Head
R_Mouth01 Head
R_mouthFront Head
TopMouth Head
weapon_bone Head
[BasePosition]
#SegmentName Tx, Ty, Tz, Rx, Ry, Rz, BoneLength
Pinger_Root 0.000000 0.000000 0.000000 -90.000000 0.000000 0.000000 10.000000 
Pelvis 0.000000 0.000000 0.000000 0.000000 0.000000 0.000000 10.000000 
L_Hip 0.000000 0.000000 0.000000 0.000000 0.000000 0.000000 10.000000 
R_Hip 0.000000 0.000000 0.000000 0.000000 0.000000 0.000000 10.000000 
Rear_Leg01 0.000000 0.000000 0.000000 0.000000 0.000000 0.000000 10.000000 
Spine1 0.000000 0.000000 0.000000 0.000000 0.000000 0.000000 10.000000 
L_Leg01 0.000000 0.000000 0.000000 0.000000 0.000000 0.000000 10.000000 
L_Leg02 0.000000 0.000000 0.000000 0.000000 0.000000 0.000000 10.000000 
L_Leg03 0.000000 0.000000 0.000000 0.000000 0.000000 0.000000 10.000000 
L_Foot 0.000000 0.000000 0.000000 0.000000 0.000000 0.000000 10.000000 
L_Toe1_01 0.000000 0.000000 0.000000 0.000000 0.000000 0.000000 10.000000 
L_Toe2_01 0.000000 0.000000 0.000000 0.000000 0.000000 0.000000 10.000000 
L_Toe3_01 0.000000 0.000000 0.000000 0.000000 0.000000 0.000000 10.000000 
planeAlignerLeft 0.000000 0.000000 0.000000 0.000000 0.000000 0.000000 10.000000 
L_Toe1_02 0.000000 0.000000 0.000000 0.000000 0.000000 0.000000 10.000000 
L_Toe1_03 0.000000 0.000000 0.000000 0.000000 0.000000 0.000000 10.000000 
L_Toe2_02 0.000000 0.000000 0.000000 0.000000 0.000000 0.000000 10.000000 
L_Toe2_03 0.000000 0.000000 0.000000 0.000000 0.000000 0.000000 10.000000 
L_Toe3_02 0.000000 0.000000 0.000000 0.000000 0.000000 0.000000 10.000000 
L_Toe3_03 0.000000 0.000000 0.000000 0.000000 0.000000 0.000000 10.000000 
planeLockWeightLeft 0.000000 0.000000 0.000000 0.000000 0.000000 0.000000 10.000000 
R_Leg01 0.000000 0.000000 0.000000 0.000000 0.000000 0.000000 10.000000 
R_Leg02 0.000000 0.000000 0.000000 0.000000 0.000000 0.000000 10.000000 
R_Leg03 0.000000 0.000000 0.000000 0.000000 0.000000 0.000000 10.000000 
R_Foot 0.000000 0.000000 0.000000 0.000000 0.000000 0.000000 10.000000 
planeAlignerRight 0.000000 0.000000 0.000000 0.000000 0.000000 0.000000 10.000000 
R_Toe1_01 0.000000 0.000000 0.000000 0.000000 0.000000 0.000000 10.000000 
R_Toe2_01 0.000000 0.000000 0.000000 0.000000 0.000000 0.000000 10.000000 
R_Toe3_01 0.000000 0.000000 0.000000 0.000000 0.000000 0.000000 10.000000 
planeLockWeightRight 0.000000 0.000000 0.000000 0.000000 0.000000 0.000000 10.000000 
R_Toe1_02 0.000000 0.000000 0.000000 0.000000 0.000000 0.000000 10.000000 
R_Toe1_03 0.000000 0.000000 0.000000 0.000000 0.000000 0.000000 10.000000 
R_Toe2_02 0.000000 0.000000 0.000000 0.000000 0.000000 0.000000 10.000000 
R_Toe2_03 0.000000 0.000000 0.000000 0.000000 0.000000 0.000000 10.000000 
R_Toe3_02 0.000000 0.000000 0.000000 0.000000 0.000000 0.000000 10.000000 
R_Toe3_03 0.000000 0.000000 0.000000 0.000000 0.000000 0.000000 10.000000 
Rear_Leg02 0.000000 0.000000 0.000000 0.000000 0.000000 0.000000 10.000000 
Rear_Leg03 0.000000 0.000000 0.000000 0.000000 0.000000 0.000000 10.000000 
Rear_Leg04 0.000000 0.000000 0.000000 0.000000 0.000000 0.000000 10.000000 
Rear_Foot 0.000000 0.000000 0.000000 0.000000 0.000000 0.000000 10.000000 
planeAlignerCenter 0.000000 0.000000 0.000000 0.000000 0.000000 0.000000 10.000000 
Rear_Toe1_01 0.000000 0.000000 0.000000 0.000000 0.000000 0.000000 10.000000 
Rear_Toe2_01 0.000000 0.000000 0.000000 0.000000 0.000000 0.000000 10.000000 
Rear_Toe3_01 0.000000 0.000000 0.000000 0.000000 0.000000 0.000000 10.000000 
planeLockWeightCenter 0.000000 0.000000 0.000000 0.000000 0.000000 0.000000 10.000000 
Rear_Toe1_02 0.000000 0.000000 0.000000 0.000000 0.000000 0.000000 10.000000 
Rear_Toe1_03 0.000000 0.000000 0.000000 0.000000 0.000000 0.000000 10.000000 
Rear_Toe2_02 0.000000 0.000000 0.000000 0.000000 0.000000 0.000000 10.000000 
Rear_Toe2_03 0.000000 0.000000 0.000000 0.000000 0.000000 0.000000 10.000000 
Rear_Toe3_02 0.000000 0.000000 0.000000 0.000000 0.000000 0.000000 10.000000 
Rear_Toe3_03 0.000000 0.000000 0.000000 0.000000 0.000000 0.000000 10.000000 
Back_Bone 0.000000 0.000000 0.000000 0.000000 0.000000 0.000000 10.000000 
Head 0.000000 0.000000 0.000000 0.000000 0.000000 0.000000 10.000000 
Motor_Bone 0.000000 0.000000 0.000000 0.000000 0.000000 0.000000 10.000000 
Ping_Mechanism 0.000000 0.000000 0.000000 0.000000 0.000000 0.000000 10.000000 
BN_LookIK 0.000000 0.000000 0.000000 0.000000 0.000000 0.000000 10.000000 
bottomMouth 0.000000 0.000000 0.000000 0.000000 0.000000 0.000000 10.000000 
L_Mouth01 0.000000 0.000000 0.000000 0.000000 0.000000 0.000000 10.000000 
L_mouthFront 0.000000 0.000000 0.000000 0.000000 0.000000 0.000000 10.000000 
mouthGun 0.000000 0.000000 0.000000 0.000000 0.000000 0.000000 10.000000 
R_Mouth01 0.000000 0.000000 0.000000 0.000000 0.000000 0.000000 10.000000 
R_mouthFront 0.000000 0.000000 0.000000 0.000000 0.000000 0.000000 10.000000 
TopMouth 0.000000 0.000000 0.000000 0.000000 0.000000 0.000000 10.000000 
weapon_bone 0.000000 0.000000 0.000000 0.000000 0.000000 0.000000 10.000000 
#Beginning of Data. Separated by tabs
#Fr	Tx	Ty	Tz	Rx	Ry	Rz	SF
[Pinger_Root]
6 0.000000 0.000095 0.000000 -0.000075 -0.000000 -0.000020 0.000095
7 0.000000 0.000114 0.000000 -0.000075 -0.000000 -0.000020 0.000114
8 0.000000 0.000134 0.000000 -0.000075 -0.000000 -0.000020 0.000134
[Pelvis]
6 -84.076401 668.197388 4220.159180 -66.828392 -71.460312 62.570625 4273.558105
7 -126.370476 688.063477 4171.049805 -63.337273 -69.815994 59.914932 4229.309082
8 -162.044617 744.777710 4136.899902 -58.790062 -69.562080 55.995560 4206.529785
[L_Hip]
6 5.766392 125.831482 872.656799 159.754120 -51.091709 119.737877 881.701050
7 5.766392 125.831482 872.656799 159.731537 -53.375641 118.685387 881.701050
8 5.766392 125.831482 872.656799 159.782013 -55.659439 117.573936 881.701050
[R_Hip]
6 5.765438 125.836372 -872.654907 37.550270 55.108337 124.680832 881.699829
7 5.765438 125.836372 -872.654907 37.241486 56.970745 124.248848 881.699829
8 5.765438 125.836372 -872.654907 36.616173 59.308807 123.600716 881.699829
[Rear_Leg01]
6 -192.298416 -925.602966 -0.001907 178.480759 9.724761 -150.916321 945.367432
7 -192.298416 -925.602966 -0.001907 -178.635376 11.174756 -147.768585 945.367432
8 -192.298416 -925.602966 -0.001907 -176.193741 12.598277 -145.616226 945.367432
[Spine1]
6 290.604584 5.007505 0.000477 2.027773 -7.292982 6.999494 290.647736
7 290.604584 5.007505 0.000477 0.853561 -8.766749 6.313552 290.647736
8 290.604584 5.007505 0.000477 -0.199511 -10.083356 7.233075 290.647736
[L_Leg01]
6 761.932007 -0.002384 -0.069261 5.644173 -34.606380 0.352887 761.932068
7 761.932007 -0.002384 -0.069261 3.837326 -38.726326 -0.455621 761.932068
8 761.932007 -0.002384 -0.069261 4.930261 -42.334156 -4.488038 761.932068
[L_Leg02]
6 1441.140503 -0.000954 -0.000715 2.458507 -0.212136 -129.152283 1441.140503
7 1441.140503 -0.000954 -0.000715 2.433206 -0.223737 -129.568314 1441.140503
8 1441.140503 -0.000954 -0.000715 2.407988 -0.235522 -129.984299 1441.140503
[L_Leg03]
6 1686.963989 -0.000715 -0.000954 -0.024102 0.009383 117.001060 1686.963989
7 1686.963989 -0.000715 -0.000954 -0.022432 0.008899 116.616783 1686.963989
8 1686.963989 -0.000715 -0.000954 -0.020759 0.008427 116.232483 1686.963989
[L_Foot]
6 3041.570068 -30.715107 11.297464 7.490420 13.078290 51.805504 3041.746094
7 3041.570068 -30.715107 11.297464 8.571346 13.177440 52.454758 3041.746094
8 3041.570068 -30.715107 11.297464 9.310925 13.343696 53.675224 3041.746094
[L_Toe1_01]
6 -188.216690 -224.732346 -21.137953 95.254936 -6.861701 -171.970078 293.899567
7 -188.216690 -224.732346 -21.137953 95.752304 -6.861062 -171.970154 293.899567
8 -188.216690 -224.732346 -21.137953 96.249649 -6.860420 -171.970200 293.899567
[L_Toe2_01]
6 200.746536 -219.926590 148.838394 -89.395241 -26.124172 -52.670540 332.896027
7 200.746536 -219.926590 148.838394 -89.106987 -26.038994 -52.669701 332.896027
8 200.746536 -219.926590 148.838394 -88.818924 -25.953819 -52.668388 332.896027
[L_Toe3_01]
6 188.832520 -219.859131 -191.078659 -102.257072 13.216286 -67.548424 347.140900
7 188.832520 -219.859131 -191.078659 -103.339714 12.945348 -67.485077 347.140900
8 188.832520 -219.859131 -191.078659 -104.421707 12.675567 -67.416527 347.140900
[planeAlignerLeft]
6 32.990112 -593.018921 101.087685 169.306686 -76.298271 89.968506 602.477051
7 32.990112 -593.018860 101.087555 169.306656 -76.298256 89.968506 602.476929
8 32.990112 -593.018860 101.087425 169.306686 -76.298271 89.968506 602.476868
[L_Toe1_02]
6 413.761139 0.000477 0.000000 0.001384 -25.994806 0.001384 413.761139
7 413.761139 0.000477 0.000000 0.001384 -25.991179 0.001384 413.761139
8 413.761139 0.000477 0.000000 0.001384 -25.987553 0.001384 413.761139
[L_Toe1_03]
6 464.317322 0.000358 -0.000089 0.003734 53.359097 0.003734 464.317322
7 464.317322 0.000358 -0.000089 0.003734 53.359097 0.003734 464.317322
8 464.317322 0.000358 -0.000089 0.003734 53.359097 0.003734 464.317322
[L_Toe2_02]
6 342.235809 -0.000477 0.000238 0.001188 -72.402016 0.001188 342.235809
7 342.235809 -0.000477 0.000238 0.001188 -72.402016 0.001188 342.235809
8 342.235809 -0.000477 0.000238 0.001188 -72.402016 0.001188 342.235809
[L_Toe2_03]
6 420.210846 -0.000715 0.000000 0.029090 85.375511 0.029090 420.210846
7 420.210846 -0.000715 0.000000 0.029090 85.375565 0.029090 420.210846
8 420.210846 -0.000715 0.000000 0.029090 85.375511 0.029090 420.210846
[L_Toe3_02]
6 329.270111 0.000954 0.000000 0.001178 -80.533653 0.001178 329.270111
7 329.270111 0.000954 0.000000 0.001178 -80.544312 0.001178 329.270111
8 329.270111 0.000954 0.000000 0.001178 -80.554878 0.001178 329.270111
[L_Toe3_03]
6 439.137451 -0.001907 0.000954 -179.995956 78.605698 -179.992447 439.137451
7 439.137451 -0.001907 0.000954 -179.995956 78.605698 -179.992447 439.137451
8 439.137451 -0.001907 0.000954 -179.995956 78.605698 -179.992447 439.137451
[planeLockWeightLeft]
6 -0.001068 0.000000 -0.000296 -0.011826 -0.004376 0.005620 0.001108
7 -0.001068 0.000000 -0.000296 -0.011826 -0.004376 0.005620 0.001108
8 -0.001068 0.000000 -0.000296 -0.011826 -0.004376 0.005620 0.001108
[R_Leg01]
6 761.455627 -0.001907 -0.000358 133.540329 -43.064693 -6.406784 761.455688
7 761.455627 -0.001907 -0.000358 134.617401 -47.631073 -10.525029 761.455688
8 761.455627 -0.001907 -0.000358 132.245911 -50.898624 -8.993609 761.455688
[R_Leg02]
6 1441.140625 0.000000 -0.000238 -2.963427 -0.821526 -177.066040 1441.140625
7 1441.140625 0.000000 -0.000238 -2.930691 -0.670514 178.996323 1441.140625
8 1441.140625 0.000000 -0.000238 -2.807608 -0.489057 177.477142 1441.140625
[R_Leg03]
6 1686.963989 0.000954 0.001431 0.091854 -0.049388 134.986237 1686.963989
7 1686.963989 0.000954 0.001431 0.080954 -0.044465 132.323074 1686.963989
8 1686.963989 0.000954 0.001431 0.069838 -0.040053 129.659912 1686.963989
[R_Foot]
6 3041.560059 -30.531288 -11.204481 15.204384 -21.618788 65.500557 3041.734131
7 3041.560059 -30.531288 -11.204481 19.940491 -21.205063 65.880463 3041.734131
8 3041.560059 -30.531288 -11.204481 23.662918 -21.144217 67.210831 3041.734131
[planeAlignerRight]
6 -52.135002 -786.921509 -234.475372 -36.459938 -79.146812 -60.159904 822.765015
7 -39.385986 -799.368774 -165.046371 -36.318584 -82.147125 -58.548370 817.179321
8 -28.334961 -806.684387 -99.541931 -37.085644 -85.143608 -56.036304 813.296509
[R_Toe1_01]
6 -188.383347 -224.864899 21.052242 83.558968 3.320820 -157.604080 294.101532
7 -188.383347 -224.864899 21.052242 86.374359 2.865264 -155.235565 294.101532
8 -188.383347 -224.864899 21.052242 89.164619 2.295157 -152.895538 294.101532
[R_Toe2_01]
6 200.637817 -220.002121 -148.787384 -97.292122 23.495790 -63.539665 332.857574
7 200.637817 -220.002121 -148.787384 -98.012070 19.862133 -62.902588 332.857574
8 200.637817 -220.002121 -148.787384 -98.480377 16.427269 -61.663910 332.857574
[R_Toe3_01]
6 188.606735 -220.092957 191.126343 -74.119202 -6.409209 -72.182884 347.192566
7 188.606735 -220.092957 191.126343 -73.733925 -8.130288 -69.217804 347.192566
8 188.606735 -220.092957 191.126343 -73.437653 -9.868831 -66.250305 347.192566
[planeLockWeightRight]
6 0.000000 0.000000 -0.000019 -0.011823 -0.004379 -0.000027 0.000019
7 0.000000 0.000000 -0.000019 -0.011823 -0.004379 -0.000027 0.000019
8 0.000000 0.000000 -0.000019 -0.011823 -0.004379 -0.000027 0.000019
[R_Toe1_02]
6 413.762085 0.000477 -0.000119 0.001390 -25.254091 0.001390 413.762085
7 413.762085 0.000477 -0.000119 0.001389 -25.320621 0.001389 413.762085
8 413.762085 0.000477 -0.000119 0.001389 -25.387152 0.001389 413.762085
[R_Toe1_03]
6 464.317810 0.000000 0.001088 0.005412 64.950691 0.005412 464.317810
7 464.317810 0.000000 0.001088 0.005264 64.234024 0.005264 464.317810
8 464.317810 0.000000 0.001088 0.005098 63.379635 0.005098 464.317810
[R_Toe2_02]
6 342.234741 -0.000954 0.000238 0.001223 -57.388069 0.001223 342.234741
7 342.234741 -0.000954 0.000238 0.001208 -62.637062 0.001208 342.234741
8 342.234741 -0.000954 0.000238 0.001199 -66.486412 0.001199 342.234741
[R_Toe2_03]
6 420.210846 0.000715 -0.000268 -0.003841 56.890671 -0.000193 420.210846
7 420.210846 0.000715 -0.000268 -0.004458 65.112045 -0.000877 420.210846
8 420.210846 0.000715 -0.000268 -0.005478 72.167267 -0.001938 420.210846
[R_Toe3_02]
6 329.270355 -0.000477 -0.000954 -0.002366 -68.138229 -0.002366 329.270355
7 329.270355 -0.000477 -0.000954 0.001190 -70.749725 0.001190 329.270355
8 329.270355 -0.000477 -0.000954 0.001187 -72.770149 0.001187 329.270355
[R_Toe3_03]
6 439.137939 0.000238 0.001431 0.006725 69.857574 0.006725 439.137939
7 439.137939 0.000238 0.001431 0.008978 74.977104 0.008978 439.137939
8 439.137939 0.000238 0.001431 0.012524 79.246292 0.012524 439.137939
[Rear_Leg02]
6 1162.777710 -0.029802 0.005960 -7.007609 15.822396 -108.262123 1162.777710
7 1162.777710 -0.029802 0.005960 -8.791853 19.983067 -103.016907 1162.777710
8 1162.777710 -0.029802 0.005960 -9.402163 23.064297 -99.561989 1162.777710
[Rear_Leg03]
6 607.192505 -0.013351 -0.073195 0.010457 -0.005178 69.040215 607.192505
7 607.192505 -0.013351 -0.073195 0.010465 -0.005161 68.860245 607.192505
8 607.192505 -0.013351 -0.073195 0.010493 -0.005105 68.243774 607.192505
[Rear_Leg04]
6 995.874512 -0.020504 -0.011921 -0.040353 -0.018455 68.207947 995.874573
7 995.874512 -0.020504 -0.011921 -0.040289 -0.018596 67.808243 995.874573
8 995.874512 -0.020504 -0.011921 -0.040064 -0.019075 66.443123 995.874573
[Rear_Foot]
6 3096.176270 -0.067472 -0.041425 66.815887 73.392654 -109.414772 3096.176270
7 3096.176270 -0.067472 -0.041425 65.408623 68.558472 -112.262215 3096.176270
8 3096.176270 -0.067472 -0.041425 63.737236 65.031281 -114.638962 3096.176270
[planeAlignerCenter]
6 -102.429253 -129.692062 -866.167603 12.240773 -0.001473 179.998184 881.792542
7 -75.476585 -97.823792 -837.922363 12.240772 -0.001473 179.998184 846.982910
8 -25.360527 -35.326233 -775.577820 12.240773 -0.001473 179.998184 776.796021
[Rear_Toe1_01]
6 0.653352 83.966492 -371.173737 5.385608 46.961082 97.765190 380.553192
7 0.653352 83.966492 -371.173737 3.791771 45.163906 95.661285 380.553192
8 0.653352 83.966492 -371.173737 1.314993 41.455498 92.094444 380.553192
[Rear_Toe2_01]
6 178.200760 -294.826019 -362.060547 -8.171239 35.940041 -73.815865 499.765686
7 178.200760 -294.826019 -362.060547 -7.380971 35.915627 -71.771851 499.765686
8 178.200760 -294.826019 -362.060547 -6.262532 34.234005 -67.681137 499.765686
[Rear_Toe3_01]
6 -153.359680 -308.780914 -362.060852 2.251854 24.826979 -115.643478 499.952881
7 -153.359680 -308.780914 -362.060852 2.644503 30.090162 -114.797699 499.952881
8 -153.359680 -308.780914 -362.060852 3.273900 32.621723 -113.411392 499.952881
[planeLockWeightCenter]
6 1000.000244 0.000423 -0.000116 -0.011814 -0.004373 -0.000015 1000.000244
7 1000.000244 0.000446 -0.000118 -0.011814 -0.004373 -0.000015 1000.000244
8 1000.000244 0.000470 -0.000120 -0.011814 -0.004373 -0.000015 1000.000244
[Rear_Toe1_02]
6 379.707825 0.194073 0.000477 -0.000767 -33.624729 0.000838 379.707855
7 379.707825 0.194073 0.000477 -0.000767 -33.624729 0.000838 379.707855
8 379.707825 0.194073 0.000477 -0.000767 -33.624729 0.000838 379.707855
[Rear_Toe1_03]
6 500.129700 0.165701 0.000119 -0.003964 58.982277 -0.000335 500.129761
7 500.129700 0.165701 0.000119 -0.003926 58.375217 -0.000292 500.129761
8 500.129700 0.165701 0.000119 0.000435 56.615215 0.007736 500.129761
[Rear_Toe2_02]
6 340.494507 0.000238 -0.000954 0.001229 -55.597115 0.001229 340.494507
7 340.494507 0.000238 -0.000954 0.001213 -60.850800 0.001213 340.494507
8 340.494507 0.000238 -0.000954 0.001194 -68.994156 0.001194 340.494507
[Rear_Toe2_03]
6 433.103577 0.000000 0.000238 0.003490 50.700962 0.003490 433.103546
7 433.103577 0.000000 0.000238 0.004158 57.211506 0.004158 433.103546
8 433.103577 0.000000 0.000238 0.006299 68.524773 0.006299 433.103546
[Rear_Toe3_02]
6 340.494141 -0.000358 -0.000477 0.002619 -25.946960 -0.003975 340.494171
7 340.494141 -0.000358 -0.000477 -0.002530 -43.350128 -0.002530 340.494171
8 340.494141 -0.000358 -0.000477 0.006858 -62.851379 -0.008040 340.494171
[Rear_Toe3_03]
6 433.103577 0.001431 -0.000238 0.006315 20.939339 -0.002174 433.103546
7 433.103577 0.001431 -0.000238 0.000655 37.325504 -0.003246 433.103546
8 433.103577 0.001431 -0.000238 -0.000397 59.819248 -0.004018 433.103546
[Back_Bone]
6 1312.175781 -701.934692 0.000954 1.004968 0.086373 -77.566345 1488.125488
7 1312.175781 -701.934692 0.000954 0.715603 0.330194 -78.365326 1488.125488
8 1312.175781 -701.934692 0.000954 0.361245 0.877543 -80.429108 1488.125488
[Head]
6 1406.159424 809.709290 0.001431 -0.110712 -0.850282 4.469692 1622.625488
7 1406.159424 809.709290 0.001431 -0.150382 -0.636192 4.207338 1622.625488
8 1406.159424 809.709290 0.001431 -0.187320 -0.401808 4.489238 1622.625488
[Motor_Bone]
6 1158.364380 -417.834747 0.000477 0.251856 -0.541809 -106.527908 1231.419434
7 1158.364380 -417.834747 0.000477 2.270587 -1.149517 -107.133400 1231.419434
8 1158.364380 -417.834747 0.000477 1.113703 -1.125686 -107.115891 1231.419434
[Ping_Mechanism]
6 1290.574341 -468.704529 43.228157 0.000103 -0.000053 82.120995 1373.730225
7 1296.134399 -468.682556 51.082840 0.000103 -0.000053 82.120995 1379.216187
8 1294.598389 -464.673462 58.113327 0.000103 -0.000053 82.120995 1376.692993
[BN_LookIK]
6 193.241119 1380.371704 -0.002861 0.000000 89.965736 -31.038179 1393.832153
7 193.241119 1380.371704 -0.002861 0.000000 89.965736 -31.038179 1393.832153
8 193.241119 1380.371704 -0.002861 0.000000 89.965736 -31.038179 1393.832153
[bottomMouth]
6 -435.092926 615.759399 -0.000954 -0.000022 0.000016 73.527184 753.966492
7 -435.092926 615.759399 -0.000954 -0.000022 0.000016 73.527184 753.966492
8 -435.092926 615.759399 -0.000954 -0.000022 0.000016 73.527184 753.966492
[L_Mouth01]
6 554.440979 7.658243 838.222046 150.204178 23.759130 109.605339 1005.027161
7 554.440979 7.658243 838.222046 150.204178 23.759130 109.605339 1005.027161
8 554.440979 7.658243 838.222046 150.204178 23.759130 109.605339 1005.027161
[L_mouthFront]
6 551.629089 934.514771 339.150421 0.000081 2.804060 79.119301 1136.941284
7 551.629089 934.514771 339.150421 0.000081 2.804060 79.119301 1136.941284
8 551.629089 934.514771 339.150421 0.000081 2.804060 79.119301 1136.941284
[mouthGun]
6 55.332661 1627.420898 0.000000 0.000023 0.000009 -11.038128 1628.361328
7 55.332661 1627.420898 0.000000 0.000023 0.000009 -11.038128 1628.361328
8 55.332661 1627.420898 0.000000 0.000023 0.000009 -11.038128 1628.361328
[R_Mouth01]
6 554.442383 7.659197 -838.223938 29.795891 -23.759109 109.605331 1005.029541
7 554.442383 7.659197 -838.223938 29.795891 -23.759109 109.605331 1005.029541
8 554.442383 7.659197 -838.223938 29.795891 -23.759109 109.605331 1005.029541
[R_mouthFront]
6 551.629089 934.514282 -339.151367 0.000029 -2.803930 79.119133 1136.941162
7 551.629089 934.514282 -339.151367 0.000029 -2.803930 79.119133 1136.941162
8 551.629089 934.514282 -339.151367 0.000029 -2.803930 79.119133 1136.941162
[TopMouth]
6 461.269867 -56.106091 -0.008583 -0.000059 -0.000268 92.025169 464.669525
7 461.269867 -56.106091 -0.008583 -0.000059 -0.000268 92.025169 464.669525
8 461.269867 -56.106091 -0.008583 -0.000059 -0.000268 92.025169 464.669525
[weapon_bone]
6 -987.239868 1448.372803 0.001431 0.000000 89.965736 -31.038221 1752.833740
7 -987.239868 1448.372803 0.001431 0.000000 89.965736 -31.038221 1752.833740
8 -987.239868 1448.372803 0.001431 0.000000 89.965736 -31.038221 1752.833740
